<svg xmlns="http://www.w3.org/2000/svg" version="1.1" xmlns:xlink="http://www.w3.org/1999/xlink" xmlns:svgjs="http://svgjs.com/svgjs" width="1920" height="1080" preserveAspectRatio="none" viewBox="0 0 1920 1080"><g mask="url(&quot;#SvgjsMask1007&quot;)" fill="none"><rect width="1920" height="1080" x="0" y="0" fill="rgba(175, 0, 0, 1)"></rect><path d="M0,685.141C122.906,657.283,205.601,553.023,311.512,484.722C417.209,416.559,549.598,386.906,621.966,284.042C700.683,172.154,741.18,31.577,725.962,-104.378C710.532,-242.23,622.61,-356.259,537.992,-466.173C448.789,-582.042,356.443,-699.237,222.623,-758.184C78.65,-821.603,-84.926,-847.39,-237.136,-807.611C-391.489,-767.272,-525.111,-665.563,-620.656,-537.801C-712.453,-415.051,-737.754,-260.927,-759.44,-109.191C-781.109,42.428,-809.081,201.122,-746.221,340.788C-683.226,480.752,-557.103,585.704,-417.739,650.015C-288.236,709.776,-139.099,716.669,0,685.141" fill="#8c0000"></path><path d="M1920 1611.714C2020.258 1603.2730000000001 2113.132 1566.536 2199.358 1514.689 2287.759 1461.535 2387.776 1406.623 2422.578 1309.52 2456.866 1213.85 2403.424 1112.634 2378.791 1014.0360000000001 2356.709 925.6510000000001 2335.864 839.102 2286.002 762.857 2230.302 677.685 2170.2889999999998 587.427 2075.53 550.312 1977.813 512.038 1865.731 523.495 1767.214 559.659 1672.183 594.544 1604.117 672.347 1536.896 748.039 1468.8980000000001 824.606 1379.633 899.317 1374.732 1001.602 1369.876 1102.941 1473.12 1172.615 1512.062 1266.299 1552.988 1364.754 1527.312 1495.52 1608.683 1564.4189999999999 1690.444 1633.6480000000001 1813.245 1620.702 1920 1611.714" fill="#d20000"></path></g><defs><mask id="SvgjsMask1007"><rect width="1920" height="1080" fill="#ffffff"></rect></mask></defs></svg>